<svg version="1.1" viewBox="0.0 0.0 400.0 200.0" fill="none" stroke="none" stroke-linecap="square" stroke-miterlimit="10" xmlns:xlink="http://www.w3.org/1999/xlink" xmlns="http://www.w3.org/2000/svg"><clipPath id="p.0"><path d="m0 0l400.0 0l0 200.0l-400.0 0l0 -200.0z" clip-rule="nonzero"/></clipPath><g clip-path="url(#p.0)"><path fill="#000000" fill-opacity="0.0" d="m0 0l400.0 0l0 200.0l-400.0 0z" fill-rule="evenodd"/><path fill="#ffffff" d="m0 0.23622048l400.0 0l0 199.68504l-400.0 0z" fill-rule="evenodd"/><path stroke="#000000" stroke-width="8.0" stroke-linejoin="round" stroke-linecap="butt" d="m0 0.23622048l400.0 0l0 199.68504l-400.0 0z" fill-rule="evenodd"/><path fill="#ffffff" d="m5.0 59.05512l0 0c0 -32.615242 26.369371 -59.05512 58.897636 -59.05512l0 0c15.620628 0 30.60147 6.221861 41.64692 17.296844c11.045448 11.074982 17.250717 26.095882 17.250717 41.758274l0 0c0 32.61524 -26.36937 59.05512 -58.897636 59.05512l0 0c-32.528267 0 -58.897636 -26.43988 -58.897636 -59.05512z" fill-rule="evenodd"/><path stroke="#000000" stroke-width="4.0" stroke-linejoin="round" stroke-linecap="butt" d="m5.0 59.05512l0 0c0 -32.615242 26.369371 -59.05512 58.897636 -59.05512l0 0c15.620628 0 30.60147 6.221861 41.64692 17.296844c11.045448 11.074982 17.250717 26.095882 17.250717 41.758274l0 0c0 32.61524 -26.36937 59.05512 -58.897636 59.05512l0 0c-32.528267 0 -58.897636 -26.43988 -58.897636 -59.05512z" fill-rule="evenodd"/><path fill="#000000" fill-opacity="0.0" d="m64.40157 17.559055l-1.0078735 82.99213" fill-rule="evenodd"/><path stroke="#000000" stroke-width="4.0" stroke-linejoin="round" stroke-linecap="butt" d="m64.40157 17.559055l-1.0078735 82.99213" fill-rule="evenodd"/><path fill="#000000" fill-opacity="0.0" d="m105.3937 59.559055l-82.99213 -1.0078735" fill-rule="evenodd"/><path stroke="#000000" stroke-width="4.0" stroke-linejoin="round" stroke-linecap="butt" d="m105.3937 59.559055l-82.99213 -1.0078735" fill-rule="evenodd"/></g></svg>