<svg version="1.1" viewBox="0.0 0.0 400.0 200.0" fill="none" stroke="none" stroke-linecap="square" stroke-miterlimit="10" xmlns:xlink="http://www.w3.org/1999/xlink" xmlns="http://www.w3.org/2000/svg"><clipPath id="p.0"><path d="m0 0l400.0 0l0 200.0l-400.0 0l0 -200.0z" clip-rule="nonzero"/></clipPath><g clip-path="url(#p.0)"><path fill="#000000" fill-opacity="0.0" d="m0 0l400.0 0l0 200.0l-400.0 0z" fill-rule="evenodd"/><path fill="#ffffff" d="m0 0.23622048l400.0 0l0 199.68504l-400.0 0z" fill-rule="evenodd"/><path stroke="#000000" stroke-width="8.0" stroke-linejoin="round" stroke-linecap="butt" d="m0 0.23622048l400.0 0l0 199.68504l-400.0 0z" fill-rule="evenodd"/><path fill="#ffffff" d="m5.0 59.05512l0 0c0 -32.615242 26.369371 -59.05512 58.897636 -59.05512l0 0c15.620628 0 30.60147 6.221861 41.64692 17.296844c11.045448 11.074982 17.250717 26.095882 17.250717 41.758274l0 0c0 32.61524 -26.36937 59.05512 -58.897636 59.05512l0 0c-32.528267 0 -58.897636 -26.43988 -58.897636 -59.05512z" fill-rule="evenodd"/><path stroke="#000000" stroke-width="4.0" stroke-linejoin="round" stroke-linecap="butt" d="m5.0 59.05512l0 0c0 -32.615242 26.369371 -59.05512 58.897636 -59.05512l0 0c15.620628 0 30.60147 6.221861 41.64692 17.296844c11.045448 11.074982 17.250717 26.095882 17.250717 41.758274l0 0c0 32.61524 -26.36937 59.05512 -58.897636 59.05512l0 0c-32.528267 0 -58.897636 -26.43988 -58.897636 -59.05512z" fill-rule="evenodd"/><path fill="#000000" fill-opacity="0.0" d="m15.0 18.0l98.99213 0l0 67.02362l-98.99213 0z" fill-rule="evenodd"/><path fill="#000000" d="m66.953094 41.970623l0 26.296879l4.84375 0q1.734375 0 2.46875 0.671875q0.75 0.671875 0.75 1.75q0 1.046875 -0.75 1.71875q-0.734375 0.671875 -2.46875 0.671875l-14.5 0q-1.734375 0 -2.484375 -0.671875q-0.734375 -0.671875 -0.734375 -1.75q0 -1.046875 0.734375 -1.71875q0.75 -0.671875 2.484375 -0.671875l4.84375 0l0 -20.031254l-4.28125 1.125q-1.03125 0.28125 -1.546875 0.28125q-0.921875 0 -1.59375 -0.71875q-0.65625 -0.734375 -0.65625 -1.796875q0 -0.953125 0.484375 -1.5q0.5 -0.5625 2.0625 -0.984375l10.34375 -2.671875z" fill-rule="nonzero"/></g></svg>